<svg viewBox="0 0 24 24" >
<path d="M4 11C3.4477 11 3 11.4477 3 12C3 12.5523 3.4477 13 4 13H20C20.5523 13 21 12.5523 21 12C21 11.4477 20.5523 11 20 11H4Z" />
<path d="M12 4C9.5147 4 7.5 5.7909 7.5 8C7.5 8.7286 7.7196 9.4036 8.1003 9.985C8.4029 10.4473 9.0231 10.5767 9.4854 10.2741C9.9477 9.9715 10.0771 9.3513 9.7745 8.889C9.6007 8.6235 9.5 8.3231 9.5 8C9.5 6.9601 10.5293 6 12 6C13.4707 6 14.5 6.9601 14.5 8C14.5 8.5523 14.9477 9 15.5 9C16.0523 9 16.5 8.5523 16.5 8C16.5 5.7909 14.4853 4 12 4Z" />
<path d="M14.7825 14C15.2241 14.5666 15.5 15.2462 15.5 16C15.5 17.0399 14.4707 18 13 18H11C9.5293 18 8.5 17.0399 8.5 16C8.5 15.4477 8.0523 15 7.5 15C6.9477 15 6.5 15.4477 6.5 16C6.5 18.2091 8.5147 20 11 20H13C15.4853 20 17.5 18.2091 17.5 16C17.5 15.2818 17.2851 14.6082 16.9106 14H14.7825Z" />
</svg>
