<svg viewBox="0 0 26 26">
<path d="M6 4.00003V5.00003V11V13V22H14.5C17.5256 22 20 19.5256 20 16.5C20 14.3252 18.7196 12.4398 16.877 11.5488C17.516 10.842 18 9.82834 18 8.50002C18 6.41669 16.8108 5.09975 15.6973 4.543C14.5838 3.98624 13.5 4.00003 13.5 4.00003H6ZM8 6.00003H13.5C13.5 6.00003 14.1662 6.01382 14.8027 6.33206C15.4392 6.6503 16 7.08336 16 8.50002C16 9.91669 15.4392 10.3497 14.8027 10.668C14.1662 10.9862 13.5 11 13.5 11H8V6.00003ZM8 13H13.5H13.5996H14.5C16.4444 13 18 14.5556 18 16.5C18 18.4444 16.4444 20 14.5 20H8V13Z"/>
</svg>