<svg viewBox="0 0 20 20" >
<path d="M10 0C4.477 0 0 4.477 0 10C0 15.523 4.477 20 10 20C15.523 20 20 15.523 20 10C20 4.477 15.523 0 10 0ZM10 2C14.418 2 18 5.582 18 10C18 14.418 14.418 18 10 18C5.582 18 2 14.418 2 10C2 5.582 5.582 2 10 2ZM6.5 6C6.10218 6 5.72064 6.15804 5.43934 6.43934C5.15804 6.72064 5 7.10218 5 7.5C5 7.89782 5.15804 8.27936 5.43934 8.56066C5.72064 8.84196 6.10218 9 6.5 9C6.89782 9 7.27936 8.84196 7.56066 8.56066C7.84196 8.27936 8 7.89782 8 7.5C8 7.10218 7.84196 6.72064 7.56066 6.43934C7.27936 6.15804 6.89782 6 6.5 6ZM13.5 6C13.1022 6 12.7206 6.15804 12.4393 6.43934C12.158 6.72064 12 7.10218 12 7.5C12 7.89782 12.158 8.27936 12.4393 8.56066C12.7206 8.84196 13.1022 9 13.5 9C13.8978 9 14.2794 8.84196 14.5607 8.56066C14.842 8.27936 15 7.89782 15 7.5C15 7.10218 14.842 6.72064 14.5607 6.43934C14.2794 6.15804 13.8978 6 13.5 6ZM4.89062 12C5.69063 14.04 7.67 15.5 10 15.5C12.33 15.5 14.3094 14.04 15.1094 12H4.89062Z" />
</svg>