<svg viewBox="0 0 42 42" >
<path d="M37.2371 8.00075C36.7922 8.01416 36.37 8.20224 36.0599 8.52514L15.0108 29.8187L5.94773 20.6504C5.78995 20.4841 5.60097 20.3514 5.39185 20.26C5.18273 20.1686 4.95768 20.1203 4.72988 20.1179C4.50207 20.1156 4.2761 20.1592 4.06518 20.2463C3.85427 20.3334 3.66266 20.4623 3.50157 20.6252C3.34048 20.7882 3.21315 20.982 3.12704 21.1954C3.04093 21.4087 2.99777 21.6373 3.00009 21.8678C3.00241 22.0982 3.05015 22.3259 3.14054 22.5375C3.23092 22.749 3.36212 22.9402 3.52645 23.0998L13.8002 33.4929C14.1213 33.8176 14.5568 34 15.0108 34C15.4648 34 15.9003 33.8176 16.2214 33.4929L38.4811 10.9745C38.7286 10.7312 38.8976 10.418 38.966 10.0759C39.0344 9.73372 38.9991 9.37865 38.8646 9.05718C38.7301 8.73571 38.5028 8.46284 38.2123 8.27433C37.9219 8.08582 37.582 7.99046 37.2371 8.00075Z" />
</svg>